<svg width="180" height="180" viewBox="0 0 180 180" fill="none" xmlns="http://www.w3.org/2000/svg">
<rect width="180" height="180" fill="white"/>
<path d="M81.2121 81.1073H67.6781C57.9441 81.1073 54.3361 77.3068 52.0111 69.2568L47.5691 52.7398C45.8691 46.3896 45.2271 44.2729 39.5191 44.2729H36.7611V39.1895H56.2281C65.5451 39.1895 67.4531 43.2145 69.7781 51.6814L74.8621 70.5236C76.5621 76.0239 77.8281 78.9905 81.2121 81.1073H98.9961C102.379 78.9905 103.662 76.2324 105.362 70.5236L110.445 51.6814C112.562 43.006 114.47 39.1895 123.996 39.1895H143.255V44.2729H140.497C134.98 44.2729 134.146 46.3896 132.447 52.7398L128.005 69.2568C125.663 77.2907 122.28 81.1073 112.546 81.1073H98.9961V98.891H112.514C122.264 98.891 125.647 102.692 127.973 110.742L132.415 127.259C134.114 133.609 134.964 135.725 140.465 135.725H143.223V140.809H123.964H123.948C114.422 140.809 112.514 136.992 110.397 128.317L105.314 109.475C103.614 103.766 102.379 101.008 98.9961 98.891H81.2121C77.8281 101.008 76.5621 103.974 74.8621 109.475L69.7781 128.317C67.4531 136.784 65.5451 140.809 56.2281 140.809H36.7611H36.7451V135.725H39.5031C45.2271 135.725 45.8531 133.609 47.5531 127.259L51.9951 110.742C54.3201 102.708 57.9281 98.891 67.6621 98.891H81.2121V81.1073Z" fill="#7856FF"/>
</svg>
