<svg width="115" height="112" viewBox="0 0 115 112" fill="none" xmlns="http://www.w3.org/2000/svg">
<path d="M57.7144 29.6637C57.7144 44.1189 45.9961 55.8372 31.5409 55.8372H5.36743V29.6637C5.36743 15.2085 17.0857 3.49023 31.5409 3.49023C45.9961 3.49023 57.7144 15.2085 57.7144 29.6637Z" fill="#17CF97"/>
<path d="M57.7144 82.0114C57.7144 67.5562 69.4326 55.8379 83.8878 55.8379H110.061V82.0114C110.061 96.4666 98.343 108.185 83.8878 108.185C69.4326 108.185 57.7144 96.4666 57.7144 82.0114Z" fill="#17CF97"/>
<path d="M5.36743 82.0114C5.36743 96.4666 17.0857 108.185 31.5409 108.185H57.7144V82.0114C57.7144 67.5562 45.9961 55.8379 31.5409 55.8379C17.0857 55.8379 5.36743 67.5562 5.36743 82.0114Z" fill="#17CF97"/>
<path d="M110.061 29.6637C110.061 15.2085 98.343 3.49023 83.8878 3.49023H57.7144V29.6637C57.7144 44.1189 69.4326 55.8372 83.8878 55.8372C98.343 55.8372 110.061 44.1189 110.061 29.6637Z" fill="#17CF97"/>
</svg>
