<svg width="180" height="180" viewBox="0 0 180 180" fill="none" xmlns="http://www.w3.org/2000/svg">
<rect width="180" height="180" fill="white"/>
<path d="M82.5892 55.6299C82.236 55.1786 81.8599 54.9297 81.4083 54.9297C81.0845 54.9529 80.7833 55.057 80.5056 55.2306C77.1665 57.8406 72.6239 68.911 68.8853 83.5177L72.2013 83.5407C78.729 83.6161 85.4767 83.6911 92.1317 83.7895C90.3728 77.1114 88.7177 71.388 87.1896 66.747C84.9501 59.9991 83.4454 56.9609 82.5892 55.6299Z" fill="#1C56EE"/>
<path d="M90 27.5C55.4861 27.5 27.5 55.4861 27.5 90C27.5 124.514 55.4861 152.5 90 152.5C124.514 152.5 152.5 124.514 152.5 90C152.5 55.4861 124.514 27.5 90 27.5ZM136.134 89.2477C135.961 89.948 135.532 90.6309 134.93 91.1285C134.855 91.1805 134.78 91.227 134.705 91.2789L134.63 91.3309L134.479 91.4293L134.352 91.5047C133.877 91.7535 133.345 91.8809 132.795 91.8809H103.177C103.403 92.859 103.68 93.9871 103.952 95.1969C105.584 102.199 109.879 120.822 114.468 120.822H114.566H114.618H114.716C118.281 120.822 120.116 115.654 124.132 104.329L124.184 104.202C124.838 102.396 125.567 100.336 126.343 98.1539L126.545 97.6043C126.846 96.875 127.673 96.4988 128.403 96.7996C128.929 97.0023 129.305 97.5289 129.305 98.1078C129.305 98.2582 129.282 98.3855 129.254 98.507L129.08 99.0566C128.652 100.411 128.229 102.245 127.697 104.381C125.313 114.271 121.696 129.207 112.459 129.207H112.384C106.412 129.155 102.847 119.618 101.314 115.527C98.4547 107.893 96.2961 99.7859 94.2129 91.9098H67.0082L61.36 110.006L61.2847 109.93C60.434 111.262 58.6516 111.661 57.3206 110.81C56.493 110.284 55.9896 109.381 55.9896 108.403V108.304L56.3426 106.244C57.118 101.603 58.0729 96.7535 59.1261 91.8867H47.581L47.5289 91.8344C45.1678 91.4816 43.5359 89.2766 43.8889 86.9156C44.1667 85.0809 45.5729 83.6285 47.3785 83.2984C47.8298 83.2465 48.2813 83.2234 48.7326 83.2465H49.2824C52.9225 83.2984 56.7882 83.3738 61.0532 83.4203C67.0543 59.022 74.0047 46.6204 81.7359 46.5972C90.0172 46.5972 96.1691 65.4456 101.088 83.8945L101.111 83.9699C111.204 84.1723 121.996 84.4734 132.459 85.2258L132.911 85.2777C133.084 85.2777 133.235 85.3008 133.414 85.3297H133.466L133.518 85.3531H133.542C135.33 85.7059 136.511 87.4652 136.134 89.2477Z" fill="#1C56EE"/>
</svg>
