<svg width="180" height="180" viewBox="0 0 180 180" fill="none" xmlns="http://www.w3.org/2000/svg">
<rect width="180" height="180" fill="white"/>
<path d="M106.024 90.0042H117.718C118.649 90.0236 119.425 89.2815 119.445 88.3497C119.45 88.1121 119.406 87.8742 119.314 87.656L99.1923 32.8914C98.95 32.2218 98.3142 31.7706 97.601 31.7754H85.8641C84.9323 31.7706 84.1706 32.5226 84.1658 33.4591C84.1658 33.6629 84.1997 33.8618 84.2726 34.051L104.389 88.8884C104.636 89.5726 105.296 90.0236 106.024 90.0042Z" fill="#0274FF"/>
<path d="M103.914 148.223H115.608C116.539 148.228 117.301 147.476 117.306 146.54C117.306 146.336 117.272 146.137 117.199 145.948L75.7099 32.8914C75.4672 32.2218 74.8317 31.7754 74.1135 31.7754H62.4348C61.5032 31.7706 60.7414 32.5226 60.7366 33.4591C60.7366 33.6628 60.7706 33.8618 60.8433 34.051L102.323 147.117C102.571 147.782 103.206 148.223 103.914 148.223Z" fill="#0274FF"/>
<path d="M80.8916 148.221H92.585C93.5167 148.265 94.3072 147.542 94.3512 146.61C94.3608 146.382 94.3267 146.159 94.2489 145.945L74.0599 91.108C73.8172 90.4385 73.1817 89.9871 72.4685 89.9922H60.7169C59.7854 90.0164 59.0478 90.7927 59.0721 91.7244C59.077 91.9136 59.1158 92.1028 59.1837 92.2821L79.3002 147.12C79.5476 147.779 80.1832 148.221 80.8916 148.221Z" fill="#0274FF"/>
<path d="M107.438 34.0656L116.87 59.7181C117.113 60.3876 117.749 60.8389 118.462 60.8341H130.155C131.087 60.8389 131.849 60.0869 131.854 59.1503C131.854 58.9467 131.82 58.7476 131.747 58.5584L122.315 32.8914C122.072 32.2218 121.436 31.7706 120.723 31.7754H109.03C108.098 31.7706 107.332 32.5178 107.327 33.4542C107.327 33.6629 107.361 33.8715 107.438 34.0656Z" fill="#0274FF"/>
<path d="M59.3206 148.224H71.014C71.9456 148.228 72.7072 147.476 72.7123 146.54C72.7123 146.336 72.6781 146.137 72.6054 145.948L63.1198 120.228C62.8772 119.558 62.2416 119.107 61.5283 119.111H49.8495C48.918 119.107 48.1513 119.854 48.1465 120.79C48.1465 120.999 48.1804 121.208 48.2581 121.402L57.6904 147.122C57.9378 147.797 58.5977 148.243 59.3206 148.224Z" fill="#0274FF"/>
</svg>
